<svg width="40" height="40" viewBox="0 0 40 40" fill="none" xmlns="http://www.w3.org/2000/svg">
    <path d="M14.5379 16.8401H8.17871V28.652H14.5379V16.8401Z" fill="#CFCFD1" />
    <path d="M23.1795 16.8401H16.8203V28.652H23.1795V16.8401Z" fill="#CFCFD1" />
    <path d="M31.8211 16.8401H25.4619V28.652H31.8211V16.8401Z" fill="#CFCFD1" />
    <path
        d="M32.5659 30.4095H7.43338C7.00459 30.4679 6.67383 30.8346 6.67383 31.2794V34.1211C6.67383 34.6064 7.06734 35 7.55274 35H32.4466C32.932 35 33.3255 34.6064 33.3255 34.1211V31.2794C33.3255 30.8346 32.9947 30.468 32.5659 30.4095Z"
        fill="#CFCFD1" />
    <path
        d="M34.3349 11.9444L20.6729 5.09325C20.4293 4.97114 20.1428 4.9688 19.8974 5.08716L5.67816 11.9383C5.30878 12.1163 5.11156 12.526 5.20279 12.9258C5.26121 13.1818 5.42832 13.3896 5.64839 13.5063C5.77203 13.5719 5.91213 13.609 6.05961 13.609H7.40621V15.082H32.5943V13.609H33.9409C34.0883 13.609 34.2284 13.572 34.3521 13.5064C34.5702 13.3907 34.7363 13.1856 34.7962 12.9326C34.89 12.536 34.6991 12.127 34.3349 11.9444ZM21.4585 10.7456H18.542C18.0566 10.7456 17.6631 10.352 17.6631 9.86666C17.6631 9.38127 18.0566 8.98775 18.542 8.98775H21.4585C21.9439 8.98775 22.3375 9.38127 22.3375 9.86666C22.3375 10.352 21.9439 10.7456 21.4585 10.7456Z"
        fill="#CFCFD1" />
</svg>
    