<svg width="44" height="44" viewBox="0 0 44 44" fill="none" xmlns="http://www.w3.org/2000/svg">
<path d="M10.4827 36.6023V34.6556C10.4827 33.9109 10.0311 33.4233 9.25578 33.4233C8.86812 33.4233 8.44659 33.5518 8.15678 33.9752C7.93096 33.6199 7.60728 33.4233 7.12177 33.4233C6.79809 33.4233 6.47441 33.5216 6.21848 33.8769V33.4876H5.54102V36.6023H6.21848V34.8824C6.21848 34.3305 6.50829 34.0697 6.95993 34.0697C7.41157 34.0697 7.63739 34.3607 7.63739 34.8824V36.6023H8.31486V34.8824C8.31486 34.3305 8.63854 34.0697 9.05631 34.0697C9.50795 34.0697 9.73377 34.3607 9.73377 34.8824V36.6023H10.4827ZM20.5318 33.4876H19.4328V32.5463H18.7553V33.4876H18.1419V34.1037H18.7553V35.5326C18.7553 36.247 19.0452 36.6666 19.8205 36.6666C20.1103 36.6666 20.434 36.5683 20.6598 36.4398L20.4641 35.8539C20.2684 35.9824 20.0425 36.0164 19.8807 36.0164C19.557 36.0164 19.4291 35.8199 19.4291 35.4985V34.1037H20.528V33.4876H20.5318ZM26.2827 33.4195C25.8951 33.4195 25.6354 33.6161 25.4735 33.8731V33.4838H24.7961V36.5985H25.4735V34.8446C25.4735 34.3267 25.6994 34.0319 26.1209 34.0319C26.2489 34.0319 26.4107 34.0659 26.5424 34.0961L26.7381 33.446C26.6027 33.4195 26.4107 33.4195 26.2827 33.4195ZM17.5924 33.7446C17.2687 33.5178 16.817 33.4195 16.3315 33.4195C15.5562 33.4195 15.0406 33.8089 15.0406 34.425C15.0406 34.9429 15.4282 35.2377 16.1057 35.3322L16.4294 35.3662C16.7832 35.4305 16.9789 35.5288 16.9789 35.6913C16.9789 35.9181 16.7192 36.0807 16.2675 36.0807C15.8159 36.0807 15.4584 35.9181 15.2325 35.7556L14.9089 36.2735C15.2626 36.5343 15.7482 36.6628 16.2337 36.6628C17.137 36.6628 17.6564 36.2394 17.6564 35.6573C17.6564 35.1054 17.2348 34.8144 16.5912 34.7161L16.2675 34.6821C15.9777 34.648 15.7519 34.5838 15.7519 34.391C15.7519 34.1642 15.9777 34.0357 16.3353 34.0357C16.723 34.0357 17.1106 34.1982 17.3063 34.2965L17.5924 33.7446ZM35.6167 33.4195C35.229 33.4195 34.9693 33.6161 34.8075 33.8731V33.4838H34.13V36.5985H34.8075V34.8446C34.8075 34.3267 35.0333 34.0319 35.4549 34.0319C35.5828 34.0319 35.7447 34.0659 35.8764 34.0961L36.0721 33.4535C35.9404 33.4195 35.7484 33.4195 35.6167 33.4195ZM26.9602 35.0449C26.9602 35.9862 27.6076 36.6666 28.6087 36.6666C29.0603 36.6666 29.384 36.5683 29.7077 36.3113L29.384 35.7594C29.1243 35.9559 28.8684 36.0504 28.5748 36.0504C28.0253 36.0504 27.6377 35.6611 27.6377 35.0449C27.6377 34.459 28.0253 34.0697 28.5748 34.0394C28.8646 34.0394 29.1243 34.1377 29.384 34.3305L29.7077 33.7786C29.384 33.5178 29.0603 33.4233 28.6087 33.4233C27.6076 33.4195 26.9602 34.1037 26.9602 35.0449ZM33.2268 35.0449V33.4876H32.5493V33.8769C32.3235 33.5858 31.9998 33.4233 31.5783 33.4233C30.7051 33.4233 30.0276 34.1037 30.0276 35.0449C30.0276 35.9862 30.7051 36.6666 31.5783 36.6666C32.0299 36.6666 32.3536 36.504 32.5493 36.213V36.6023H33.2268V35.0449ZM30.739 35.0449C30.739 34.493 31.0927 34.0394 31.6761 34.0394C32.2256 34.0394 32.6133 34.4628 32.6133 35.0449C32.6133 35.5968 32.2256 36.0504 31.6761 36.0504C31.0965 36.0164 30.739 35.593 30.739 35.0449ZM22.632 33.4195C21.7287 33.4195 21.0813 34.0697 21.0813 35.0412C21.0813 36.0164 21.7287 36.6628 22.6658 36.6628C23.1175 36.6628 23.5691 36.5343 23.9267 36.2394L23.603 35.7518C23.3433 35.9484 23.0196 36.0769 22.6997 36.0769C22.2782 36.0769 21.8604 35.8803 21.7625 35.3322H24.0546C24.0546 35.2339 24.0546 35.1697 24.0546 35.0714C24.0847 34.0697 23.5014 33.4195 22.632 33.4195ZM22.632 34.0054C23.0535 34.0054 23.3433 34.2662 23.4073 34.7501H21.7927C21.8566 34.3305 22.1464 34.0054 22.632 34.0054ZM39.4632 35.0449V32.2552H38.7857V33.8769C38.5599 33.5858 38.2362 33.4233 37.8147 33.4233C36.9415 33.4233 36.2641 34.1037 36.2641 35.0449C36.2641 35.9862 36.9415 36.6666 37.8147 36.6666C38.2663 36.6666 38.59 36.504 38.7857 36.213V36.6023H39.4632V35.0449ZM36.9754 35.0449C36.9754 34.493 37.3292 34.0394 37.9126 34.0394C38.4621 34.0394 38.8497 34.4628 38.8497 35.0449C38.8497 35.5968 38.4621 36.0504 37.9126 36.0504C37.3292 36.0164 36.9754 35.593 36.9754 35.0449ZM14.2954 35.0449V33.4876H13.6179V33.8769C13.3921 33.5858 13.0684 33.4233 12.6469 33.4233C11.7737 33.4233 11.0962 34.1037 11.0962 35.0449C11.0962 35.9862 11.7737 36.6666 12.6469 36.6666C13.0985 36.6666 13.4222 36.504 13.6179 36.213V36.6023H14.2954V35.0449ZM11.7775 35.0449C11.7775 34.493 12.1312 34.0394 12.7146 34.0394C13.2641 34.0394 13.6518 34.4628 13.6518 35.0449C13.6518 35.5968 13.2641 36.0504 12.7146 36.0504C12.1312 36.0164 11.7775 35.593 11.7775 35.0449Z" fill="black"/>
<path d="M27.5432 9.83179H17.3662V28.1954H27.5432V9.83179Z" fill="#FF5A00"/>
<path d="M18.0443 19.0138C18.0443 15.2829 19.7907 11.9715 22.4704 9.832C20.4982 8.27461 18.0104 7.33337 15.2968 7.33337C8.86842 7.33337 3.66699 12.5574 3.66699 19.0138C3.66699 25.4701 8.86842 30.6942 15.2968 30.6942C18.0104 30.6942 20.4982 29.753 22.4704 28.1956C19.7869 26.0863 18.0443 22.7447 18.0443 19.0138Z" fill="#EB001B"/>
<path d="M41.2731 19.0138C41.2731 25.4701 36.0717 30.6942 29.6433 30.6942C26.9297 30.6942 24.4419 29.753 22.4697 28.1956C25.1834 26.0523 26.8958 22.7447 26.8958 19.0138C26.8958 15.2829 25.1495 11.9715 22.4697 9.832C24.4381 8.27461 26.9259 7.33337 29.6396 7.33337C36.0717 7.33337 41.2731 12.5914 41.2731 19.0138Z" fill="#F79E1B"/>
</svg>
