<svg width="66" height="18" viewBox="0 0 66 18" fill="none" xmlns="http://www.w3.org/2000/svg">
<path d="M0.100563 4.232C0.100563 9.032 5.26056 9.68 5.26056 13.136C5.26056 14.336 4.73256 14.768 3.89256 14.768C3.05256 14.768 2.52456 14.336 2.52456 13.136V11.936H0.0285625V12.968C0.0285625 15.656 1.37256 17.192 3.96456 17.192C6.55656 17.192 7.90056 15.656 7.90056 12.968C7.90056 8.168 2.74056 7.52 2.74056 4.064C2.74056 2.864 3.22056 2.408 4.06056 2.408C4.90056 2.408 5.38056 2.864 5.38056 4.064V4.76H7.87656V4.232C7.87656 1.544 6.55656 0.0079999 3.98856 0.0079999C1.42056 0.0079999 0.100563 1.544 0.100563 4.232ZM12.0531 9.8H15.0531V17H17.7411V0.199999H15.0531V7.4H12.0531V0.199999H9.41313V17H12.0531V9.8ZM22.0793 4.064C22.0793 2.864 22.6073 2.408 23.4473 2.408C24.2873 2.408 24.8153 2.864 24.8153 4.064V13.136C24.8153 14.336 24.2873 14.792 23.4473 14.792C22.6073 14.792 22.0793 14.336 22.0793 13.136V4.064ZM19.4393 12.968C19.4393 15.656 20.8553 17.192 23.4473 17.192C26.0393 17.192 27.4553 15.656 27.4553 12.968V4.232C27.4553 1.544 26.0393 0.0079999 23.4473 0.0079999C20.8553 0.0079999 19.4393 1.544 19.4393 4.232V12.968ZM33.0589 0.199999H29.1709V17H31.8109V10.688H33.0589C35.6989 10.688 36.9949 9.224 36.9949 6.536V4.352C36.9949 1.664 35.6989 0.199999 33.0589 0.199999ZM33.0589 2.6C33.8989 2.6 34.3549 2.984 34.3549 4.184V6.704C34.3549 7.904 33.8989 8.288 33.0589 8.288H31.8109V2.6H33.0589ZM42.223 0.199999H38.335V17H40.975V10.688H42.223C44.863 10.688 46.159 9.224 46.159 6.536V4.352C46.159 1.664 44.863 0.199999 42.223 0.199999ZM42.223 2.6C43.063 2.6 43.519 2.984 43.519 4.184V6.704C43.519 7.904 43.063 8.288 42.223 8.288H40.975V2.6H42.223ZM53.0504 0.199999H49.1864L46.4984 17H48.9224L49.3784 13.952H52.6184L53.0744 17H55.7384L53.0504 0.199999ZM50.9864 3.176L52.2584 11.672H49.7144L50.9864 3.176ZM59.4398 17H62.0798V11.432L65.4158 0.199999H62.8958L60.8798 7.856L58.8638 0.199999H56.1038L59.4398 11.432V17Z" fill="#DE6053"/>
</svg>
