<svg width="375" height="48" viewBox="0 0 375 48" fill="none" xmlns="http://www.w3.org/2000/svg">
<path d="M136.568 31.4319C136.472 32.5116 136.016 33.5493 135.201 34.545C134.397 35.5287 133.257 36.3325 131.781 36.9563C130.318 37.5801 128.548 37.892 126.473 37.892C124.362 37.892 122.52 37.4722 120.949 36.6324C119.377 35.7806 118.159 34.611 117.296 33.1234C116.432 31.6238 116 29.8963 116 27.9409C116 25.9614 116.438 24.2279 117.314 22.7404C118.201 21.2408 119.431 20.0771 121.003 19.2494C122.586 18.4096 124.416 17.9897 126.491 17.9897C128.614 17.9897 130.45 18.4156 131.997 19.2674C133.545 20.1071 134.739 21.2888 135.578 22.8123C136.418 24.3239 136.838 26.0874 136.838 28.1028C136.838 28.7267 136.814 29.2185 136.766 29.5784H121.65C121.902 30.874 122.448 31.8818 123.288 32.6015C124.128 33.3093 125.267 33.6632 126.707 33.6632C128.207 33.6632 129.286 33.4233 129.946 32.9434C130.618 32.4516 130.99 31.9477 131.062 31.4319H136.568ZM126.563 22.1645C125.279 22.1645 124.218 22.4884 123.378 23.1362C122.55 23.7841 121.992 24.7018 121.704 25.8895H131.134C131.05 24.9417 130.636 24.084 129.892 23.3162C129.16 22.5484 128.051 22.1645 126.563 22.1645Z" fill="white"/>
<path d="M157.272 18.3496L151.477 37.4602H143.956L138.035 18.3496H143.794L147.717 34.0051L151.495 18.3496H157.272Z" fill="white"/>
<path d="M178.849 31.4319C178.753 32.5116 178.297 33.5493 177.481 34.545C176.678 35.5287 175.538 36.3325 174.062 36.9563C172.599 37.5801 170.829 37.892 168.754 37.892C166.643 37.892 164.801 37.4722 163.229 36.6324C161.658 35.7806 160.44 34.611 159.577 33.1234C158.713 31.6238 158.281 29.8963 158.281 27.9409C158.281 25.9614 158.719 24.2279 159.595 22.7404C160.482 21.2408 161.712 20.0771 163.283 19.2494C164.867 18.4096 166.696 17.9897 168.772 17.9897C170.895 17.9897 172.731 18.4156 174.278 19.2674C175.826 20.1071 177.02 21.2888 177.859 22.8123C178.699 24.3239 179.119 26.0874 179.119 28.1028C179.119 28.7267 179.095 29.2185 179.047 29.5784H163.931C164.183 30.874 164.729 31.8818 165.569 32.6015C166.409 33.3093 167.548 33.6632 168.988 33.6632C170.487 33.6632 171.567 33.4233 172.227 32.9434C172.899 32.4516 173.271 31.9477 173.343 31.4319H178.849ZM168.844 22.1645C167.56 22.1645 166.499 22.4884 165.659 23.1362C164.831 23.7841 164.273 24.7018 163.985 25.8895H173.415C173.331 24.9417 172.917 24.084 172.173 23.3162C171.441 22.5484 170.331 22.1645 168.844 22.1645Z" fill="white"/>
<path d="M182.605 37.4602V18.3496H188.184V21.2828C188.915 20.2511 189.851 19.4473 190.991 18.8715C192.13 18.2836 193.378 17.9897 194.734 17.9897C197.085 17.9897 198.819 18.6795 199.934 20.0591C201.062 21.4387 201.626 23.2502 201.626 25.4936V37.4602H196.065V27.0951C196.065 26.3033 195.963 25.5835 195.759 24.9357C195.555 24.2759 195.184 23.7481 194.644 23.3522C194.116 22.9563 193.36 22.7584 192.376 22.7584C191.081 22.7584 190.055 23.1962 189.299 24.072C188.555 24.9357 188.184 26.0634 188.184 27.455V37.4602H182.605Z" fill="white"/>
<path d="M214.773 37.856C214.041 37.856 213.286 37.7901 212.506 37.6581C211.738 37.5381 211.024 37.2922 210.364 36.9203C209.705 36.5364 209.165 35.9786 208.745 35.2468C208.337 34.515 208.133 33.5493 208.133 32.3496V22.6684H203.724V18.3496H204.966C205.938 18.3496 206.646 18.2836 207.089 18.1517C207.545 18.0197 207.833 17.6838 207.953 17.144C208.073 16.5921 208.133 15.6984 208.133 14.4627V12.0514H213.73V18.3496H219.29V22.6684H213.73V30.7661C213.73 31.5938 213.825 32.2656 214.017 32.7815C214.221 33.2973 214.719 33.5553 215.511 33.5553C215.907 33.5553 216.279 33.5193 216.627 33.4473C216.987 33.3753 217.257 33.3033 217.436 33.2314V37.4242C217.185 37.5321 216.831 37.6281 216.375 37.7121C215.919 37.8081 215.385 37.856 214.773 37.856Z" fill="white"/>
<path d="M225.209 15.2365C224.345 15.2365 223.59 15.0086 222.942 14.5527C222.306 14.0968 221.988 13.455 221.988 12.6272C221.988 11.7875 222.306 11.1397 222.942 10.6838C223.59 10.2279 224.345 10 225.209 10C226.073 10 226.829 10.2279 227.476 10.6838C228.124 11.1397 228.448 11.7875 228.448 12.6272C228.448 13.467 228.124 14.1148 227.476 14.5707C226.829 15.0146 226.073 15.2365 225.209 15.2365ZM222.456 37.4602V18.3496H227.98V37.4602H222.456Z" fill="white"/>
<path d="M244.579 37.4602L240.513 31.5219L236.194 37.4602H230.238L237.579 28.1568L230.561 18.3496H236.626L240.657 24.3239L244.651 18.3496H250.608L243.77 27.6889L250.68 37.4602H244.579Z" fill="white"/>
<path d="M256.432 38C255.604 38 254.902 37.7121 254.326 37.1362C253.75 36.5604 253.462 35.8586 253.462 35.0309C253.462 34.2151 253.75 33.5193 254.326 32.9434C254.902 32.3676 255.604 32.0797 256.432 32.0797C257.247 32.0797 257.943 32.3676 258.519 32.9434C259.095 33.5193 259.383 34.2151 259.383 35.0309C259.383 35.8586 259.095 36.5604 258.519 37.1362C257.943 37.7121 257.247 38 256.432 38Z" fill="white"/>
</svg>