<svg width="40" height="40" viewBox="0 0 40 40" fill="none" xmlns="http://www.w3.org/2000/svg">
    <g clip-path="url(#clip0_19858_1892)">
        <path
            d="M29.2889 5.79827C27.8374 4.13292 25.2136 3.41895 21.8571 3.41895H12.1154C11.4287 3.41895 10.8452 3.92169 10.7376 4.60337L6.68143 30.4993C6.60079 31.0099 6.99358 31.4725 7.50776 31.4725H13.5219L15.0323 21.8286L14.9855 22.1306C15.093 21.4489 15.6722 20.9462 16.3581 20.9462H19.216C24.8304 20.9462 29.2265 18.6507 30.5106 12.0102C30.5488 11.8138 30.5817 11.6227 30.6104 11.4359C30.4482 11.3495 30.4482 11.3495 30.6104 11.4359C30.9927 8.98148 30.6078 7.31088 29.2889 5.79827Z"
            fill="#27346A" />
        <path
            d="M17.3336 10.5517C17.494 10.4749 17.6726 10.4321 17.8599 10.4321H25.4972C26.4015 10.4321 27.2452 10.4915 28.016 10.6163C28.2372 10.6521 28.4513 10.6931 28.6594 10.7402C28.8675 10.7865 29.0696 10.8389 29.2655 10.8965C29.3635 10.9253 29.4597 10.9549 29.5543 10.9864C29.9332 11.1138 30.2861 11.2622 30.6104 11.4359C30.9928 8.9806 30.6078 7.31088 29.2889 5.79827C27.8366 4.13292 25.2136 3.41895 21.8571 3.41895H12.1146C11.4287 3.41895 10.8452 3.92169 10.7377 4.60337L6.68143 30.4984C6.60079 31.0099 6.99358 31.4716 7.50689 31.4716H13.5219L16.6555 11.4682C16.7197 11.0579 16.9815 10.7219 17.3336 10.5517Z"
            fill="#27346A" />
        <path
            d="M30.5109 12.0102C29.2268 18.6498 24.8307 20.9462 19.2163 20.9462H16.3575C15.6716 20.9462 15.0924 21.449 14.9858 22.1307L13.1068 34.1216C13.0366 34.5685 13.3799 34.9734 13.8291 34.9734H18.8989C19.4989 34.9734 20.0097 34.5335 20.1033 33.9374L20.1527 33.6773L21.1083 27.5815L21.1698 27.2446C21.2635 26.6484 21.7742 26.2085 22.3742 26.2085H23.1329C28.0441 26.2085 31.8896 24.2001 33.0133 18.3915C33.4824 15.9641 33.2396 13.9374 31.9988 12.5139C31.6225 12.0827 31.1552 11.7266 30.6106 11.4359C30.5812 11.6236 30.5491 11.8138 30.5109 12.0102Z"
            fill="#2790C3" />
        <path
            d="M29.2664 10.8965C29.0704 10.8389 28.8684 10.7865 28.6603 10.7402C28.4522 10.694 28.2371 10.653 28.0169 10.6172C27.2452 10.4915 26.4024 10.4321 25.4971 10.4321H17.8607C17.6726 10.4321 17.4939 10.4749 17.3344 10.5526C16.9815 10.7228 16.7205 11.0579 16.6563 11.469L15.0332 21.8286L14.9863 22.1306C15.093 21.4489 15.6722 20.9462 16.3581 20.9462H19.2168C24.8312 20.9462 29.2273 18.6507 30.5115 12.0102C30.5496 11.8138 30.5817 11.6235 30.6112 11.4359C30.286 11.2631 29.934 11.1138 29.5551 10.9872C29.4606 10.9558 29.3643 10.9253 29.2664 10.8965Z"
            fill="#1F264F" />
    </g>
    <defs>
        <clipPath id="clip0_19858_1892">
            <rect width="26.6667" height="31.6667" fill="white"
                transform="translate(6.66699 3.33337)" />
        </clipPath>
    </defs>
</svg>
    