<svg width="26" height="24" viewBox="0 0 26 24" fill="none" xmlns="http://www.w3.org/2000/svg">
<rect width="26" height="24" fill="white"/>
<path d="M22.5766 4.60999C22.0233 4.099 21.3663 3.69364 20.6433 3.41708C19.9202 3.14052 19.1452 2.99817 18.3625 2.99817C17.5798 2.99817 16.8047 3.14052 16.0817 3.41708C15.3586 3.69364 14.7016 4.099 14.1483 4.60999L13 5.66999L11.8516 4.60999C10.734 3.5783 9.21809 2.9987 7.63747 2.9987C6.05685 2.9987 4.54097 3.5783 3.4233 4.60999C2.30563 5.64169 1.67773 7.04096 1.67773 8.49999C1.67773 9.95903 2.30563 11.3583 3.4233 12.39L4.57163 13.45L13 21.23L21.4283 13.45L22.5766 12.39C23.1302 11.8792 23.5693 11.2728 23.869 10.6053C24.1686 9.93789 24.3228 9.22248 24.3228 8.49999C24.3228 7.77751 24.1686 7.0621 23.869 6.39464C23.5693 5.72718 23.1302 5.12075 22.5766 4.60999Z" fill="#FF6D6D" stroke="#FF6D6D" stroke-width="1.5" stroke-linecap="round" stroke-linejoin="round"/>
</svg>
