<svg width="48" height="48" viewBox="0 0 48 48" fill="none" xmlns="http://www.w3.org/2000/svg">
<rect width="48" height="48" rx="8" fill="#22C55E" fill-opacity="0.16"/>
<path fill-rule="evenodd" clip-rule="evenodd" d="M14 24C14 18.4772 18.4772 14 24 14C26.6522 14 29.1957 15.0536 31.0711 16.9289C32.9464 18.8043 34 21.3478 34 24C34 29.5228 29.5228 34 24 34C18.4772 34 14 29.5228 14 24ZM23.73 27.61L28.3 21.61V21.58C28.5179 21.2942 28.5668 20.9138 28.4283 20.5822C28.2897 20.2505 27.9848 20.018 27.6283 19.9722C27.2718 19.9264 26.9179 20.0742 26.7 20.36L22.92 25.36L21.29 23.28C21.0703 22.9978 20.7167 22.8542 20.3624 22.9033C20.0081 22.9525 19.707 23.1869 19.5724 23.5183C19.4378 23.8497 19.4903 24.2278 19.71 24.51L22.15 27.62C22.3408 27.8615 22.6322 28.0017 22.94 28C23.2495 27.9993 23.5412 27.8552 23.73 27.61Z" fill="#22C55E"/>
</svg>
