<svg width="48" height="48" viewBox="0 0 48 48" fill="none" xmlns="http://www.w3.org/2000/svg">
<rect width="48" height="48" rx="8" fill="#00B8D9" fill-opacity="0.16"/>
<path fill-rule="evenodd" clip-rule="evenodd" d="M24 14C18.4772 14 14 18.4772 14 24C14 29.5228 18.4772 34 24 34C29.5228 34 34 29.5228 34 24C34 21.3478 32.9464 18.8043 31.0711 16.9289C29.1957 15.0536 26.6522 14 24 14ZM25 28C25 28.5523 24.5523 29 24 29C23.4477 29 23 28.5523 23 28V23C23 22.4477 23.4477 22 24 22C24.5523 22 25 22.4477 25 23V28ZM23 20C23 20.5523 23.4477 21 24 21C24.5523 21 25 20.5523 25 20C25 19.4477 24.5523 19 24 19C23.4477 19 23 19.4477 23 20Z" fill="#00B8D9"/>
</svg>
