<svg width="48" height="48" viewBox="0 0 48 48" fill="none" xmlns="http://www.w3.org/2000/svg">
<rect width="48" height="48" rx="8" fill="#FF5630" fill-opacity="0.16"/>
<path fill-rule="evenodd" clip-rule="evenodd" d="M19.843 15.802C21.872 14.601 22.886 14 24 14C25.114 14 26.128 14.6 28.157 15.802L28.843 16.208C30.872 17.41 31.886 18.011 32.443 19C33 19.99 33 21.19 33 23.594V24.406C33 26.809 33 28.011 32.443 29C31.886 29.99 30.872 30.59 28.843 31.791L28.157 32.198C26.128 33.399 25.114 34 24 34C22.886 34 21.872 33.4 19.843 32.198L19.157 31.791C17.128 30.591 16.114 29.989 15.557 29C15 28.01 15 26.81 15 24.406V23.594C15 21.19 15 19.989 15.557 19C16.114 18.01 17.128 17.41 19.157 16.208L19.843 15.802ZM25 28C25 28.2652 24.8946 28.5196 24.7071 28.7071C24.5196 28.8946 24.2652 29 24 29C23.7348 29 23.4804 28.8946 23.2929 28.7071C23.1054 28.5196 23 28.2652 23 28C23 27.7348 23.1054 27.4804 23.2929 27.2929C23.4804 27.1054 23.7348 27 24 27C24.2652 27 24.5196 27.1054 24.7071 27.2929C24.8946 27.4804 25 27.7348 25 28ZM24 18.25C24.1989 18.25 24.3897 18.329 24.5303 18.4697C24.671 18.6103 24.75 18.8011 24.75 19V25C24.75 25.1989 24.671 25.3897 24.5303 25.5303C24.3897 25.671 24.1989 25.75 24 25.75C23.8011 25.75 23.6103 25.671 23.4697 25.5303C23.329 25.3897 23.25 25.1989 23.25 25V19C23.25 18.8011 23.329 18.6103 23.4697 18.4697C23.6103 18.329 23.8011 18.25 24 18.25Z" fill="#FF5630"/>
</svg>
