<svg width="60" height="60" viewBox="0 0 60 60" fill="none" xmlns="http://www.w3.org/2000/svg">
<circle cx="30" cy="30" r="30" fill="#F5F5F6"/>
<path fill-rule="evenodd" clip-rule="evenodd" d="M43.7137 30.0834C43.7137 22.4638 37.573 16.2858 29.9994 16.2858C22.4258 16.2858 16.2852 22.4638 16.2852 30.0834C16.2852 36.9697 21.2996 42.6781 27.8568 43.7143V34.0728H24.3737V30.0834H27.8568V27.0429C27.8568 23.5852 29.905 21.674 33.037 21.674C34.5374 21.674 36.1073 21.9437 36.1073 21.9437V25.3393H34.3773C32.6744 25.3393 32.1421 26.4026 32.1421 27.495V30.0833H35.9452L35.3377 34.0727H32.142V43.7142C38.6992 42.6799 43.7137 36.9716 43.7137 30.0834Z" fill="#0078FF"/>
</svg>
