<svg width="60" height="60" viewBox="0 0 60 60" fill="none" xmlns="http://www.w3.org/2000/svg">
<circle cx="30" cy="30" r="30" fill="#F5F5F6"/>
<g clip-path="url(#clip0_14675_11298)">
<path d="M43.3864 30.3158C43.3864 29.3835 43.3109 28.4462 43.1496 27.5291H30.2139V32.8102H37.6216C37.3142 34.5134 36.3265 36.0202 34.8802 36.9776V40.4043H39.2996C41.8948 38.0157 43.3864 34.4882 43.3864 30.3158Z" fill="#4285F4"/>
<path d="M30.2134 43.7154C33.9122 43.7154 37.0315 42.5009 39.3042 40.4046L34.8848 36.9779C33.6552 37.8144 32.0679 38.2881 30.2185 38.2881C26.6406 38.2881 23.607 35.8743 22.5185 32.629H17.958V36.1615C20.2861 40.7926 25.0281 43.7154 30.2134 43.7154Z" fill="#34A853"/>
<path d="M22.5134 32.6291C21.9389 30.9258 21.9389 29.0815 22.5134 27.3782V23.8457H17.9579C16.0127 27.7209 16.0127 32.2864 17.9579 36.1616L22.5134 32.6291Z" fill="#FBBC04"/>
<path d="M30.2134 21.7139C32.1687 21.6837 34.0584 22.4194 35.4744 23.77L39.3899 19.8545C36.9106 17.5263 33.62 16.2464 30.2134 16.2867C25.0281 16.2867 20.2861 19.2094 17.958 23.8455L22.5135 27.3781C23.5969 24.1277 26.6356 21.7139 30.2134 21.7139Z" fill="#EA4335"/>
</g>
<defs>
<clipPath id="clip0_14675_11298">
<rect width="27.4286" height="27.4286" fill="white" transform="translate(16.2852 16.2858)"/>
</clipPath>
</defs>
</svg>
