<svg width="60" height="60" viewBox="0 0 60 60" fill="none" xmlns="http://www.w3.org/2000/svg">
<circle cx="30" cy="30" r="30" fill="#F5F5F6"/>
<path d="M25.2292 40.3942C34.9327 40.3942 40.2402 32.3549 40.2402 25.3832C40.2402 25.1549 40.2402 24.9276 40.2248 24.7013C41.2573 23.9544 42.1485 23.0297 42.8569 21.9704C41.894 22.3971 40.8726 22.6769 39.8267 22.8005C40.928 22.1411 41.7523 21.1041 42.1461 19.8824C41.1105 20.4969 39.9775 20.93 38.7961 21.163C38.0006 20.3172 36.9486 19.7571 35.8028 19.5694C34.657 19.3818 33.4812 19.577 32.4575 20.1248C31.4338 20.6727 30.6192 21.5427 30.1398 22.6002C29.6604 23.6576 29.5428 24.8436 29.8053 25.9747C27.7078 25.8695 25.6559 25.3244 23.7827 24.3748C21.9095 23.4252 20.2569 22.0923 18.9323 20.4625C18.2576 21.624 18.051 22.9989 18.3545 24.3073C18.6579 25.6157 19.4487 26.7593 20.5657 27.5052C19.7261 27.4803 18.9048 27.2538 18.1711 26.8448C18.1711 26.8664 18.1711 26.8891 18.1711 26.9117C18.1715 28.1297 18.5931 29.3102 19.3646 30.2528C20.136 31.1954 21.2098 31.8421 22.4037 32.0833C21.627 32.2952 20.8121 32.3261 20.0215 32.1739C20.3587 33.2221 21.015 34.1388 21.8988 34.7958C22.7825 35.4527 23.8495 35.8169 24.9505 35.8376C23.0823 37.3058 20.7745 38.1029 18.3985 38.1005C17.9787 38.0997 17.5594 38.0743 17.1426 38.0244C19.5552 39.5727 22.3625 40.3939 25.2292 40.3901" fill="#1DA1F2"/>
</svg>
